<svg width="18" height="20" viewBox="0 0 18 20" fill="none" xmlns="http://www.w3.org/2000/svg">
<path d="M7.596 17.0959C7.44 17.0959 7.302 17.0569 7.182 16.9789C7.062 16.9009 6.975 16.7929 6.921 16.6549C6.867 16.5169 6.855 16.3759 6.885 16.2319C6.915 16.0879 6.978 15.9679 7.074 15.8719L12.654 10.2739L7.074 4.6939C7.002 4.6219 6.948 4.5409 6.912 4.4509C6.876 4.3609 6.858 4.2679 6.858 4.1719C6.858 4.0759 6.876 3.9859 6.912 3.9019C6.948 3.8179 7.002 3.7399 7.074 3.6679C7.146 3.5959 7.227 3.5419 7.317 3.5059C7.407 3.4699 7.491 3.4519 7.569 3.4519C7.647 3.4519 7.746 3.4759 7.866 3.5239C7.95 3.5599 8.028 3.6139 8.1 3.6859L14.184 9.7699C14.328 9.9139 14.4 10.0849 14.4 10.2829C14.4 10.4809 14.328 10.6519 14.184 10.7959L8.1 16.8799C7.956 17.0239 7.788 17.0959 7.596 17.0959ZM13.68 10.9939H0.72C0.516 10.9939 0.345 10.9249 0.207 10.7869C0.069 10.6489 0 10.4809 0 10.2829C0 10.0849 0.072 9.9139 0.216 9.7699C0.36 9.6259 0.528 9.5539 0.72 9.5539H13.68C13.872 9.5539 14.04 9.6259 14.184 9.7699C14.328 9.9139 14.4 10.0849 14.4 10.2829C14.4 10.4809 14.331 10.6489 14.193 10.7869C14.055 10.9249 13.884 10.9939 13.68 10.9939Z" fill="white"/>
</svg>
