<svg width="38" height="38" viewBox="0 0 38 38" fill="none" xmlns="http://www.w3.org/2000/svg">
<path d="M23.5 3.91943V18.9194C23.5 20.5694 22.15 21.9194 20.5 21.9194H4V12.3494C5.095 13.6544 6.77504 14.4644 8.63504 14.4194C10.15 14.3894 11.515 13.8044 12.535 12.8294C13 12.4394 13.39 11.9444 13.69 11.4044C14.23 10.4894 14.53 9.40939 14.5 8.28439C14.455 6.52939 13.675 4.98443 12.46 3.91943H23.5Z" stroke="#292D32" stroke-width="2.25" stroke-linecap="round" stroke-linejoin="round"/>
<path d="M34 21.9194V26.4194C34 28.9094 31.99 30.9194 29.5 30.9194H28C28 29.2694 26.65 27.9194 25 27.9194C23.35 27.9194 22 29.2694 22 30.9194H16C16 29.2694 14.65 27.9194 13 27.9194C11.35 27.9194 10 29.2694 10 30.9194H8.5C6.01 30.9194 4 28.9094 4 26.4194V21.9194H20.5C22.15 21.9194 23.5 20.5694 23.5 18.9194V8.41943H26.26C27.34 8.41943 28.33 9.00445 28.87 9.93445L31.435 14.4194H29.5C28.675 14.4194 28 15.0944 28 15.9194V20.4194C28 21.2444 28.675 21.9194 29.5 21.9194H34Z" stroke="#292D32" stroke-width="2.25" stroke-linecap="round" stroke-linejoin="round"/>
<path d="M13 33.9194C14.6569 33.9194 16 32.5763 16 30.9194C16 29.2626 14.6569 27.9194 13 27.9194C11.3431 27.9194 10 29.2626 10 30.9194C10 32.5763 11.3431 33.9194 13 33.9194Z" stroke="#292D32" stroke-width="2.25" stroke-linecap="round" stroke-linejoin="round"/>
<path d="M25 33.9194C26.6569 33.9194 28 32.5763 28 30.9194C28 29.2626 26.6569 27.9194 25 27.9194C23.3431 27.9194 22 29.2626 22 30.9194C22 32.5763 23.3431 33.9194 25 33.9194Z" stroke="#292D32" stroke-width="2.25" stroke-linecap="round" stroke-linejoin="round"/>
<path d="M34 18.9194V21.9194H29.5C28.675 21.9194 28 21.2444 28 20.4194V15.9194C28 15.0944 28.675 14.4194 29.5 14.4194H31.435L34 18.9194Z" stroke="#292D32" stroke-width="2.25" stroke-linecap="round" stroke-linejoin="round"/>
<path d="M14.5003 8.28455C14.5303 9.40955 14.2303 10.4895 13.6903 11.4045C13.3903 11.9445 13.0003 12.4396 12.5353 12.8296C11.5153 13.8046 10.1503 14.3896 8.6353 14.4196C6.7753 14.4646 5.09526 13.6546 4.00026 12.3496C3.79026 12.1246 3.61026 11.8696 3.44526 11.6146C2.86026 10.7296 2.53026 9.67963 2.50026 8.55463C2.45526 6.66463 3.29525 4.93958 4.64525 3.81458C5.66525 2.97458 6.95522 2.44959 8.36522 2.41959C9.94022 2.38959 11.3803 2.95959 12.4603 3.91959C13.6753 4.98459 14.4553 6.52955 14.5003 8.28455Z" stroke="#292D32" stroke-width="2.25" stroke-miterlimit="10" stroke-linecap="round" stroke-linejoin="round"/>
<path d="M6.16064 8.4646L7.67566 9.90454L10.8106 6.87451" stroke="#292D32" stroke-width="2.25" stroke-linecap="round" stroke-linejoin="round"/>
</svg>
