<svg width="18" height="20" viewBox="0 0 18 20" fill="none" xmlns="http://www.w3.org/2000/svg">
<path d="M7.596 17.0858C7.44 17.0858 7.302 17.0468 7.182 16.9688C7.062 16.8908 6.975 16.7828 6.921 16.6448C6.867 16.5068 6.855 16.3658 6.885 16.2218C6.915 16.0778 6.978 15.9578 7.074 15.8618L12.654 10.2639L7.074 4.68389C7.002 4.61189 6.948 4.53089 6.912 4.44089C6.876 4.35089 6.858 4.25789 6.858 4.16189C6.858 4.06589 6.876 3.97589 6.912 3.89189C6.948 3.80789 7.002 3.72989 7.074 3.65789C7.146 3.58589 7.227 3.53189 7.317 3.49589C7.407 3.45989 7.491 3.44189 7.569 3.44189C7.647 3.44189 7.746 3.46589 7.866 3.51389C7.95 3.54989 8.028 3.60389 8.1 3.67589L14.184 9.75989C14.328 9.90389 14.4 10.0749 14.4 10.2729C14.4 10.4709 14.328 10.6418 14.184 10.7858L8.1 16.8698C7.956 17.0138 7.788 17.0858 7.596 17.0858ZM13.68 10.9838H0.72C0.516 10.9838 0.345 10.9148 0.207 10.7768C0.069 10.6388 0 10.4709 0 10.2729C0 10.0749 0.072 9.90389 0.216 9.75989C0.36 9.61589 0.528 9.54389 0.72 9.54389H13.68C13.872 9.54389 14.04 9.61589 14.184 9.75989C14.328 9.90389 14.4 10.0749 14.4 10.2729C14.4 10.4709 14.331 10.6388 14.193 10.7768C14.055 10.9148 13.884 10.9838 13.68 10.9838Z" fill="#0E0E0E"/>
</svg>
