<svg width="38" height="38" viewBox="0 0 38 38" fill="none" xmlns="http://www.w3.org/2000/svg">
<path d="M11.0303 14.8096L18.9803 19.4146L26.8703 14.8396" stroke="#292D32" stroke-width="2.25" stroke-linecap="round" stroke-linejoin="round"/>
<path d="M18.98 27.5744V19.3994" stroke="#292D32" stroke-width="2.25" stroke-linecap="round" stroke-linejoin="round"/>
<path d="M17.1204 10.3547L12.3204 13.0247C11.2404 13.6247 10.3403 15.1397 10.3403 16.3847V21.4697C10.3403 22.7147 11.2254 24.2297 12.3204 24.8297L17.1204 27.4997C18.1404 28.0697 19.8204 28.0697 20.8554 27.4997L25.6554 24.8297C26.7354 24.2297 27.6353 22.7147 27.6353 21.4697V16.3697C27.6353 15.1247 26.7504 13.6097 25.6554 13.0097L20.8554 10.3397C19.8204 9.76971 18.1404 9.76972 17.1204 10.3547Z" stroke="#292D32" stroke-width="2.25" stroke-linecap="round" stroke-linejoin="round"/>
<path d="M33.98 23.4194C33.98 29.2244 29.285 33.9194 23.48 33.9194L25.055 31.2944" stroke="#292D32" stroke-width="2.25" stroke-linecap="round" stroke-linejoin="round"/>
<path d="M3.97998 14.4194C3.97998 8.61443 8.67498 3.91943 14.48 3.91943L12.905 6.54443" stroke="#292D32" stroke-width="2.25" stroke-linecap="round" stroke-linejoin="round"/>
</svg>
