<svg width="15" height="15" viewBox="0 0 15 15" fill="none" xmlns="http://www.w3.org/2000/svg">
<path d="M7.596 14.5959C7.44 14.5959 7.302 14.5569 7.182 14.4789C7.062 14.4009 6.975 14.2929 6.921 14.1549C6.867 14.0169 6.855 13.8759 6.885 13.7319C6.915 13.5879 6.978 13.4679 7.074 13.3719L12.654 7.77396L7.074 2.19397C7.002 2.12197 6.948 2.04097 6.912 1.95097C6.876 1.86097 6.858 1.76797 6.858 1.67197C6.858 1.57597 6.876 1.48597 6.912 1.40197C6.948 1.31797 7.002 1.23997 7.074 1.16797C7.146 1.09597 7.227 1.04197 7.317 1.00597C7.407 0.969965 7.491 0.951965 7.569 0.951965C7.647 0.951965 7.746 0.975965 7.866 1.02397C7.95 1.05997 8.028 1.11397 8.1 1.18597L14.184 7.26997C14.328 7.41397 14.4 7.58497 14.4 7.78297C14.4 7.98097 14.328 8.15192 14.184 8.29592L8.1 14.3799C7.956 14.5239 7.788 14.5959 7.596 14.5959ZM13.68 8.49392H0.72C0.516 8.49392 0.345 8.42491 0.207 8.28691C0.069 8.14891 0 7.98097 0 7.78297C0 7.58497 0.072 7.41397 0.216 7.26997C0.36 7.12597 0.528 7.05397 0.72 7.05397H13.68C13.872 7.05397 14.04 7.12597 14.184 7.26997C14.328 7.41397 14.4 7.58497 14.4 7.78297C14.4 7.98097 14.331 8.14891 14.193 8.28691C14.055 8.42491 13.884 8.49392 13.68 8.49392Z" fill="#0E0E0E"/>
</svg>
